<?xml version="1.0" encoding="UTF-8"?>
<!DOCTYPE svg PUBLIC "-//W3C//DTD SVG 1.1//EN" "http://www.w3.org/Graphics/SVG/1.1/DTD/svg11.dtd">
<svg xmlns="http://www.w3.org/2000/svg" version="1.1" width="264px" height="79px" style="shape-rendering:geometricPrecision; text-rendering:geometricPrecision; image-rendering:optimizeQuality; fill-rule:evenodd; clip-rule:evenodd" xmlns:xlink="http://www.w3.org/1999/xlink">
<g><path style="opacity:1" fill="#fdfdfd" d="M -0.5,-0.5 C 87.5,-0.5 175.5,-0.5 263.5,-0.5C 263.5,25.8333 263.5,52.1667 263.5,78.5C 175.5,78.5 87.5,78.5 -0.5,78.5C -0.5,52.1667 -0.5,25.8333 -0.5,-0.5 Z"/></g>
<g><path style="opacity:1" fill="#e03b2f" d="M 37.5,4.5 C 39.1207,4.7869 40.1207,5.7869 40.5,7.5C 42.0453,8.45189 43.712,8.78522 45.5,8.5C 43.983,11.5873 43.3163,14.9206 43.5,18.5C 41.5165,18.6168 39.8498,17.9501 38.5,16.5C 34.463,19.2918 32.6297,17.9585 33,12.5C 29.8499,9.57052 30.6833,8.07052 35.5,8C 36.305,6.88732 36.9717,5.72065 37.5,4.5 Z"/></g>
<g><path style="opacity:1" fill="#e34a3c" d="M 24.5,11.5 C 26.9754,12.6874 27.9754,14.6874 27.5,17.5C 22.6464,17.1304 21.6464,15.1304 24.5,11.5 Z"/></g>
<g><path style="opacity:1" fill="#e34b3d" d="M 50.5,11.5 C 54.263,12.2376 55.263,14.2376 53.5,17.5C 52.1667,17.5 50.8333,17.5 49.5,17.5C 49.67,16.1779 49.3366,15.0113 48.5,14C 49.3805,13.2917 50.0472,12.4584 50.5,11.5 Z"/></g>
<g><path style="opacity:1" fill="#212121" d="M 173.5,13.5 C 175.5,13.5 177.5,13.5 179.5,13.5C 179.5,22.1667 179.5,30.8333 179.5,39.5C 177.5,39.5 175.5,39.5 173.5,39.5C 173.5,30.8333 173.5,22.1667 173.5,13.5 Z"/></g>
<g><path style="opacity:1" fill="#e03c30" d="M 14.5,17.5 C 17.9209,17.2384 18.9209,18.5717 17.5,21.5C 16.3112,22.4287 14.9778,22.762 13.5,22.5C 13.366,20.7085 13.6993,19.0418 14.5,17.5 Z"/></g>
<g><path style="opacity:1" fill="#e13f32" d="M 59.5,17.5 C 64.4108,18.3881 64.7441,20.0548 60.5,22.5C 57.2813,21.134 56.9479,19.4674 59.5,17.5 Z"/></g>
<g><path style="opacity:1" fill="#202020" d="M 103.5,17.5 C 104.833,17.5 106.167,17.5 107.5,17.5C 107.263,18.791 107.596,19.791 108.5,20.5C 109.833,20.5 111.167,20.5 112.5,20.5C 112.5,22.1667 112.5,23.8333 112.5,25.5C 110.833,25.5 109.167,25.5 107.5,25.5C 107.336,28.1873 107.503,30.854 108,33.5C 109.356,34.3802 110.856,34.7135 112.5,34.5C 111.896,39.1522 109.23,40.6522 104.5,39C 103.692,38.6924 103.025,38.1924 102.5,37.5C 102.08,32.855 101.08,28.355 99.5,24C 101.043,21.9583 102.376,19.7917 103.5,17.5 Z"/></g>
<g><path style="opacity:1" fill="#9e9e9e" d="M 103.5,17.5 C 104.919,16.5489 106.585,16.2155 108.5,16.5C 108.5,17.8333 108.5,19.1667 108.5,20.5C 107.596,19.791 107.263,18.791 107.5,17.5C 106.167,17.5 104.833,17.5 103.5,17.5 Z"/></g>
<g><path style="opacity:1" fill="#2c2c2c" d="M 115.5,20.5 C 118.547,19.8554 120.713,20.8554 122,23.5C 123.509,21.0807 125.675,20.0807 128.5,20.5C 128.5,22.5 128.5,24.5 128.5,26.5C 126.533,26.2606 124.699,26.5939 123,27.5C 122.501,31.4862 122.334,35.4862 122.5,39.5C 120.167,39.5 117.833,39.5 115.5,39.5C 115.5,33.1667 115.5,26.8333 115.5,20.5 Z"/></g>
<g><path style="opacity:1" fill="#292929" d="M 134.5,20.5 C 138.911,20.021 143.078,20.6876 147,22.5C 148.404,28.0438 148.904,33.7104 148.5,39.5C 146.179,39.7711 144.179,39.1045 142.5,37.5C 135.006,41.6667 131.173,39.6667 131,31.5C 133.641,28.262 137.141,26.5953 141.5,26.5C 141.113,25.2801 140.28,24.6135 139,24.5C 136.034,26.2617 133.868,25.5951 132.5,22.5C 133.243,21.8182 133.909,21.1515 134.5,20.5 Z"/></g>
<g><path style="opacity:1" fill="#272727" d="M 150.5,20.5 C 152.833,20.5 155.167,20.5 157.5,20.5C 159.524,33.7963 161.524,33.7963 163.5,20.5C 165.924,20.1924 168.257,20.5258 170.5,21.5C 168.235,27.1276 166.069,32.7943 164,38.5C 161.861,39.7691 159.695,39.7691 157.5,38.5C 155.154,32.4788 152.82,26.4788 150.5,20.5 Z"/></g>
<g><path style="opacity:1" fill="#1c5342" d="M 27.5,22.5 C 34.8409,22.3337 42.1742,22.5003 49.5,23C 50,23.5 50.5,24 51,24.5C 51.4999,38.8295 51.6666,53.1628 51.5,67.5C 48.8806,67.7683 46.3806,67.435 44,66.5C 43.501,62.1794 43.3343,57.8461 43.5,53.5C 39.8333,53.5 36.1667,53.5 32.5,53.5C 32.5,58.1667 32.5,62.8333 32.5,67.5C 29.8333,67.5 27.1667,67.5 24.5,67.5C 24.3334,53.496 24.5001,39.496 25,25.5C 26.045,24.6266 26.8783,23.6266 27.5,22.5 Z"/></g>
<g><path style="opacity:1" fill="#f4f4f4" d="M 137.5,31.5 C 138.833,31.5 140.167,31.5 141.5,31.5C 141.5,32.5 141.5,33.5 141.5,34.5C 140.167,34.5 138.833,34.5 137.5,34.5C 137.5,33.5 137.5,32.5 137.5,31.5 Z"/></g>
<g><path style="opacity:1" fill="#f7faf9" d="M 31.5,33.5 C 36.2137,33.1734 40.8804,33.5067 45.5,34.5C 43.1667,34.8333 40.8333,35.1667 38.5,35.5C 35.7305,35.4714 33.3972,34.8048 31.5,33.5 Z"/></g>
<g><path style="opacity:1" fill="#1e5544" d="M 14.5,37.5 C 17.1667,37.5 19.8333,37.5 22.5,37.5C 22.5,47.5 22.5,57.5 22.5,67.5C 19.4816,67.6646 16.4816,67.498 13.5,67C 12.8742,66.2496 12.3742,65.4162 12,64.5C 11.3333,56.5 11.3333,48.5 12,40.5C 13.045,39.6266 13.8783,38.6266 14.5,37.5 Z"/></g>
<g><path style="opacity:1" fill="#1f5545" d="M 54.5,37.5 C 57.9297,37.1065 61.0964,37.7732 64,39.5C 64.6667,48.1667 64.6667,56.8333 64,65.5C 63.5,66 63,66.5 62.5,67C 59.5184,67.498 56.5184,67.6646 53.5,67.5C 53.1926,57.4176 53.5259,47.4176 54.5,37.5 Z"/></g>
<g><path style="opacity:1" fill="#e5ecea" d="M 33.5,43.5 C 36.8984,43.1796 40.2317,43.513 43.5,44.5C 41.8333,44.8333 40.1667,45.1667 38.5,45.5C 36.3603,45.4439 34.6936,44.7773 33.5,43.5 Z"/></g>
<g><path style="opacity:1" fill="#a6bfb8" d="M 16.5,47.5 C 17.5,47.5 18.5,47.5 19.5,47.5C 19.5,49.5 19.5,51.5 19.5,53.5C 18.5,53.5 17.5,53.5 16.5,53.5C 16.5,51.5 16.5,49.5 16.5,47.5 Z"/></g>
<g><path style="opacity:1" fill="#f8faf9" d="M 57.5,47.5 C 58.6935,47.9704 59.3601,48.9704 59.5,50.5C 59.1667,51.5 58.8333,52.5 58.5,53.5C 57.5344,51.604 57.2011,49.604 57.5,47.5 Z"/></g>
<g><path style="opacity:1" fill="#938d86" d="M 208.5,51.5 C 210.575,52.6196 212.741,53.6196 215,54.5C 215.667,56.5 215.667,58.5 215,60.5C 214.667,58.8333 214.333,57.1667 214,55.5C 212.989,54.6634 211.822,54.33 210.5,54.5C 210.799,56.604 210.466,58.604 209.5,60.5C 208.516,57.5719 208.183,54.5719 208.5,51.5 Z"/></g>
<g><path style="opacity:1" fill="#99948d" d="M 236.5,54.5 C 238.265,53.5386 240.265,53.2053 242.5,53.5C 242.5,55.8333 242.5,58.1667 242.5,60.5C 238.535,62.6259 235.868,61.6259 234.5,57.5C 234.453,55.9623 235.12,54.9623 236.5,54.5 Z"/></g>
<g><path style="opacity:1" fill="#7e7870" d="M 114.5,59.5 C 115.169,55.3241 113.669,53.9907 110,55.5C 109.51,56.7932 109.343,58.1266 109.5,59.5C 107.49,54.0135 109.323,52.3469 115,54.5C 115.78,56.3869 115.613,58.0536 114.5,59.5 Z"/></g>
<g><path style="opacity:1" fill="#f7f7f7" d="M 114.5,59.5 C 112.833,59.5 111.167,59.5 109.5,59.5C 109.343,58.1266 109.51,56.7932 110,55.5C 113.669,53.9907 115.169,55.3241 114.5,59.5 Z"/></g>
<g><path style="opacity:1" fill="#6f675e" d="M 117.5,51.5 C 118.309,52.4687 119.309,53.3021 120.5,54C 119.422,54.6739 118.755,55.6739 118.5,57C 119.079,58.4459 119.079,59.6126 118.5,60.5C 117.144,57.4292 116.811,54.4292 117.5,51.5 Z"/></g>
<g><path style="opacity:1" fill="#8c867f" d="M 146.5,59.5 C 145.387,58.0536 145.22,56.3869 146,54.5C 148.312,54.0449 150.312,53.0449 152,51.5C 152.821,54.5541 152.655,57.5541 151.5,60.5C 149.38,62.0093 147.713,61.676 146.5,59.5 Z"/></g>
<g><path style="opacity:1" fill="#f7f7f6" d="M 146.5,59.5 C 145.831,55.3241 147.331,53.9907 151,55.5C 151.49,56.7932 151.657,58.1266 151.5,59.5C 149.833,59.5 148.167,59.5 146.5,59.5 Z"/></g>
<g><path style="opacity:1" fill="#89827b" d="M 154.5,53.5 C 158.329,53.937 161.995,54.1037 165.5,54C 166.591,56.0639 166.758,58.2305 166,60.5C 164.333,52.5 162.667,52.5 161,60.5C 160.667,58.8333 160.333,57.1667 160,55.5C 158.989,54.6634 157.822,54.33 156.5,54.5C 156.799,56.604 156.466,58.604 155.5,60.5C 154.526,58.2573 154.192,55.924 154.5,53.5 Z"/></g>
<g><path style="opacity:1" fill="#6c645b" d="M 171.5,53.5 C 172.289,53.7828 172.956,54.2828 173.5,55C 172.751,56.7337 172.251,58.567 172,60.5C 171.503,58.1902 171.337,55.8568 171.5,53.5 Z"/></g>
<g><path style="opacity:1" fill="#9d9892" d="M 194.5,54.5 C 196.265,53.5386 198.265,53.2053 200.5,53.5C 200.5,55.8333 200.5,58.1667 200.5,60.5C 196.535,62.6259 193.868,61.6259 192.5,57.5C 192.453,55.9623 193.12,54.9623 194.5,54.5 Z"/></g>
<g><path style="opacity:1" fill="#f8f7f7" d="M 194.5,54.5 C 197.91,54.3838 199.244,56.0504 198.5,59.5C 194.071,60.0826 192.737,58.4159 194.5,54.5 Z"/></g>
<g><path style="opacity:1" fill="#fafafa" d="M 219.5,54.5 C 222.91,54.3838 224.244,56.0504 223.5,59.5C 219.065,60.0776 217.732,58.4109 219.5,54.5 Z"/></g>
<g><path style="opacity:1" fill="#928d86" d="M 231.5,54.5 C 234.363,57.3974 233.863,59.7308 230,61.5C 226.893,60.2042 225.893,57.8709 227,54.5C 228.616,53.1991 230.116,53.1991 231.5,54.5 Z"/></g>
<g><path style="opacity:1" fill="#faf9f9" d="M 231.5,54.5 C 233.263,58.4159 231.929,60.0826 227.5,59.5C 226.756,56.0504 228.09,54.3838 231.5,54.5 Z"/></g>
<g><path style="opacity:1" fill="#faf9f9" d="M 236.5,54.5 C 239.91,54.3838 241.244,56.0504 240.5,59.5C 236.071,60.0826 234.737,58.4159 236.5,54.5 Z"/></g>
<g><path style="opacity:1" fill="#a9a49f" d="M 243.5,53.5 C 244.873,53.3433 246.207,53.51 247.5,54C 246.072,55.9162 245.072,58.0829 244.5,60.5C 243.526,58.2573 243.192,55.924 243.5,53.5 Z"/></g>
<g><path style="opacity:1" fill="#8a847c" d="M 254.5,51.5 C 255.803,54.3553 255.803,57.3553 254.5,60.5C 249.541,61.7039 247.708,59.7039 249,54.5C 251.326,54.12 253.159,53.12 254.5,51.5 Z"/></g>
<g><path style="opacity:1" fill="#fafafa" d="M 250.5,54.5 C 253.91,54.3838 255.244,56.0504 254.5,59.5C 250.065,60.0776 248.732,58.4109 250.5,54.5 Z"/></g>
<g><path style="opacity:1" fill="#215646" d="M 34.5,55.5 C 36.8568,55.3367 39.1902,55.5034 41.5,56C 42.8333,59.6667 42.8333,63.3333 41.5,67C 39.1902,67.4966 36.8568,67.6633 34.5,67.5C 34.5,63.5 34.5,59.5 34.5,55.5 Z"/></g>
<g><path style="opacity:1" fill="#787269" d="M 99.5,51.5 C 100.434,52.5676 100.768,53.901 100.5,55.5C 102.167,55.5 103.833,55.5 105.5,55.5C 106.833,55.8333 106.833,56.1667 105.5,56.5C 103.833,56.5 102.167,56.5 100.5,56.5C 100.657,57.8734 100.49,59.2068 100,60.5C 99.502,57.5184 99.3354,54.5184 99.5,51.5 Z"/></g>
<g><path style="opacity:1" fill="#98938d" d="M 202.5,53.5 C 204.429,53.2308 206.095,53.7308 207.5,55C 206.049,54.7374 204.716,54.9041 203.5,55.5C 205.053,56.439 206.387,57.6057 207.5,59C 206.137,61.5376 204.47,61.8709 202.5,60C 203.833,59.6667 205.167,59.3333 206.5,59C 204.919,58.2935 203.419,57.4601 202,56.5C 201.53,55.4232 201.697,54.4232 202.5,53.5 Z"/></g>
<g><path style="opacity:1" fill="#a6a19c" d="M 176.5,54.5 C 178.616,56.0881 178.949,58.0881 177.5,60.5C 176.534,58.604 176.201,56.604 176.5,54.5 Z"/></g>
<g><path style="opacity:1" fill="#79726a" d="M 219.5,54.5 C 220.884,53.1991 222.384,53.1991 224,54.5C 224.78,56.3869 224.613,58.0536 223.5,59.5C 224.244,56.0504 222.91,54.3838 219.5,54.5 Z"/></g>
<g><path style="opacity:1" fill="#918c85" d="M 123.5,54.5 C 126.676,52.7271 128.343,53.7271 128.5,57.5C 126.473,57.3379 124.473,57.5045 122.5,58C 124.54,59.3798 126.54,59.8798 128.5,59.5C 125.123,62.4854 122.79,61.8187 121.5,57.5C 121.453,55.9623 122.12,54.9623 123.5,54.5 Z"/></g>
<g><path style="opacity:1" fill="#fafafa" d="M 123.5,54.5 C 125.103,54.3118 126.437,54.8118 127.5,56C 125.537,56.8442 124.204,56.3442 123.5,54.5 Z"/></g>
<g><path style="opacity:1" fill="#9f9993" d="M 139.5,51.5 C 140.75,51.5774 141.583,52.244 142,53.5C 143.115,56.1546 143.782,58.8213 144,61.5C 141.667,57.5 139.333,57.5 137,61.5C 137.494,58.1642 138.328,54.8309 139.5,51.5 Z"/></g>
<g><path style="opacity:1" fill="#8f8982" d="M 183.5,51.5 C 191.219,50.8701 193.219,53.8701 189.5,60.5C 187.591,61.3482 185.591,61.6816 183.5,61.5C 183.5,58.1667 183.5,54.8333 183.5,51.5 Z"/></g>
<g><path style="opacity:1" fill="#f8f8f8" d="M 184.5,52.5 C 189.214,52.2008 190.88,54.2008 189.5,58.5C 187.955,59.4519 186.288,59.7852 184.5,59.5C 184.5,57.1667 184.5,54.8333 184.5,52.5 Z"/></g>
<g><path style="opacity:1" fill="#a09c96" d="M 109.5,59.5 C 111.167,59.5 112.833,59.5 114.5,59.5C 112.833,62.1667 111.167,62.1667 109.5,59.5 Z"/></g>
<g><path style="opacity:1" fill="#8a837c" d="M 219.5,54.5 C 217.732,58.4109 219.065,60.0776 223.5,59.5C 223.189,60.4778 222.522,61.1445 221.5,61.5C 220.264,60.7542 218.93,60.4208 217.5,60.5C 217.335,57.4816 217.502,54.4816 218,51.5C 218.232,52.7375 218.732,53.7375 219.5,54.5 Z"/></g>
</svg>
